<?xml version="1.0" encoding="UTF-8"?>
<!DOCTYPE svg PUBLIC "-//W3C//DTD SVG 1.1//EN" "http://www.w3.org/Graphics/SVG/1.1/DTD/svg11.dtd">
<svg xmlns="http://www.w3.org/2000/svg" version="1.1" width="987px" height="1106px" style="shape-rendering:geometricPrecision; text-rendering:geometricPrecision; image-rendering:optimizeQuality; fill-rule:evenodd; clip-rule:evenodd" xmlns:xlink="http://www.w3.org/1999/xlink">
<g><path style="opacity:0.956" fill="#fe0a09" d="M 488.5,-0.5 C 491.167,-0.5 493.833,-0.5 496.5,-0.5C 513.199,5.73465 517.699,17.068 510,33.5C 501.018,43.0297 490.851,44.5297 479.5,38C 468.607,26.0289 468.94,14.3622 480.5,3C 483.158,1.52203 485.825,0.355367 488.5,-0.5 Z"/></g>
<g><path style="opacity:0.935" fill="#fe0a09" d="M 890.5,7.5 C 900.717,6.43681 906.717,10.9368 908.5,21C 905.447,33.1934 898.113,36.86 886.5,32C 881.85,27.4256 880.35,21.9256 882,15.5C 884.098,11.8972 886.932,9.23049 890.5,7.5 Z"/></g>
<g><path style="opacity:0.961" fill="#fe0a09" d="M 429.5,112.5 C 426.833,112.5 424.167,112.5 421.5,112.5C 402.645,105.779 397.145,93.1128 405,74.5C 414.926,62.4573 426.76,60.2907 440.5,68C 451.729,78.6004 453.229,90.4337 445,103.5C 440.726,108.215 435.559,111.215 429.5,112.5 Z"/></g>
<g><path style="opacity:0.961" fill="#fe0a09" d="M 563.5,112.5 C 560.833,112.5 558.167,112.5 555.5,112.5C 536.645,105.779 531.145,93.1128 539,74.5C 548.926,62.4573 560.76,60.2907 574.5,68C 585.729,78.6004 587.229,90.4337 579,103.5C 574.726,108.215 569.559,111.215 563.5,112.5 Z"/></g>
<g><path style="opacity:0.957" fill="#fe0a09" d="M 290.5,66.5 C 309.496,69.485 315.996,80.1517 310,98.5C 301.781,109.168 291.614,111.335 279.5,105C 269.457,95.4606 268.29,84.9606 276,73.5C 280.22,69.638 285.054,67.3047 290.5,66.5 Z"/></g>
<g><path style="opacity:0.954" fill="#fe0a09" d="M 692.5,66.5 C 711.49,69.4717 717.99,80.1383 712,98.5C 703.752,109.156 693.585,111.323 681.5,105C 671.518,96.127 670.018,85.9603 677,74.5C 681.379,70.0619 686.546,67.3952 692.5,66.5 Z"/></g>
<g><path style="opacity:0.947" fill="#fe0a09" d="M 823.5,70.5 C 841.228,70.7295 847.728,79.3962 843,96.5C 833.447,107.878 823.447,108.211 813,97.5C 807.662,84.8671 811.162,75.8671 823.5,70.5 Z"/></g>
<g><path style="opacity:0.933" fill="#fe0a09" d="M 956.5,74.5 C 973.648,74.1331 978.814,81.7998 972,97.5C 962.957,103.829 955.291,102.496 949,93.5C 946.526,85.1248 949.026,78.7915 956.5,74.5 Z"/></g>
<g><path style="opacity:0.955" fill="#000001" d="M 421.5,112.5 C 424.167,112.5 426.833,112.5 429.5,112.5C 471.5,112.5 513.5,112.5 555.5,112.5C 558.167,112.5 560.833,112.5 563.5,112.5C 616.168,112.333 668.834,112.5 721.5,113C 744.203,114.789 764.869,122.122 783.5,135C 838.281,170.376 866.114,220.876 867,286.5C 881.718,373.922 893.551,461.588 902.5,549.5C 904.085,554.678 904.752,560.012 904.5,565.5C 904.667,582.503 904.5,599.503 904,616.5C 896.949,623.779 888.449,628.612 878.5,631C 837.567,640.134 796.234,643.3 754.5,640.5C 749.466,590.83 744.3,541.163 739,491.5C 735.651,460.708 731.484,430.041 726.5,399.5C 726.608,395.753 726.108,392.086 725,388.5C 724.501,392.486 724.334,396.486 724.5,400.5C 725.252,536.007 725.085,671.674 724,807.5C 723.188,824.268 718.188,839.602 709,853.5C 704.898,858.104 700.398,862.104 695.5,865.5C 692.592,866.287 689.926,867.62 687.5,869.5C 686.508,869.328 685.842,869.662 685.5,870.5C 675.365,874.49 665.031,877.99 654.5,881C 637.195,884.794 619.861,888.461 602.5,892C 564.34,903.932 525.34,911.432 485.5,914.5C 428.515,910.503 372.515,900.836 317.5,885.5C 304.151,880.38 290.818,875.046 277.5,869.5C 265.406,861.407 255.74,851.074 248.5,838.5C 243.76,826.541 240.427,814.208 238.5,801.5C 235.655,774.133 235.988,746.8 239.5,719.5C 239.5,700.5 239.5,681.5 239.5,662.5C 243.518,569.134 242.685,475.801 237,382.5C 224.73,468.803 216.063,555.47 211,642.5C 210.7,649.302 207.2,652.802 200.5,653C 157.082,655.053 114.415,650.387 72.5,639C 67.1231,637.398 62.9565,634.231 60,629.5C 58.4325,621.579 58.0991,613.579 59,605.5C 65.4915,506.569 76.9915,408.235 93.5,310.5C 96.0523,296.331 97.3856,281.997 97.5,267.5C 99.5935,231.662 112.427,200.328 136,173.5C 167.543,137.312 207.377,117.478 255.5,114C 310.815,111.42 366.148,110.92 421.5,112.5 Z M 683.5,124.5 C 742.497,124.919 790.33,147.919 827,193.5C 846.576,222.714 853.909,254.714 849,289.5C 844.894,299.939 837.727,307.439 827.5,312C 819.086,315.471 810.42,318.138 801.5,320C 778.647,324.095 755.647,326.428 732.5,327C 731.206,324.913 730.039,322.746 729,320.5C 726.722,310.223 724.722,299.89 723,289.5C 721.527,285.221 719.527,281.221 717,277.5C 667.864,320.967 610.364,345.801 544.5,352C 477.009,360.465 410.343,356.132 344.5,339C 315.708,330.602 289.042,317.936 264.5,301C 259.833,298.667 255.167,296.333 250.5,294C 245.232,292.55 241.732,294.383 240,299.5C 239.715,307.184 238.048,314.517 235,321.5C 230.115,326.608 224.115,329.275 217,329.5C 184.284,324.057 153.117,313.89 123.5,299C 117.597,295.084 114.097,289.584 113,282.5C 105.777,220.752 130.944,178.585 188.5,156C 217.047,144.864 246.38,136.53 276.5,131C 285.341,130.19 294.174,129.357 303,128.5C 306.229,129.099 309.396,129.932 312.5,131C 317.919,137.812 323.586,144.479 329.5,151C 334.108,154.137 339.108,156.47 344.5,158C 380.462,164.216 416.462,170.216 452.5,176C 481.657,180.749 510.99,182.749 540.5,182C 568.004,180.941 593.671,173.608 617.5,160C 623.354,155.646 628.354,150.48 632.5,144.5C 632.167,144.167 631.833,143.833 631.5,143.5C 602.867,151.433 574.201,159.266 545.5,167C 479.722,165.422 414.388,159.089 349.5,148C 340.769,144.414 335.436,137.914 333.5,128.5C 341.834,127.75 350.168,126.917 358.5,126C 447.167,125.333 535.833,125.333 624.5,126C 633.626,127.126 638.792,132.292 640,141.5C 652.99,131.784 667.49,126.118 683.5,124.5 Z M 854.5,307.5 C 856.959,309.052 858.459,311.385 859,314.5C 861.047,326.063 863.214,337.563 865.5,349C 851.77,356.436 837.104,361.102 821.5,363C 793.704,367.48 765.871,368.314 738,365.5C 736.641,360.225 736.308,354.891 737,349.5C 738.167,347 740,345.167 742.5,344C 768.616,336.221 794.95,329.221 821.5,323C 833.689,320.011 844.689,314.844 854.5,307.5 Z M 106.5,310.5 C 116.912,317.537 128.245,322.703 140.5,326C 161.667,330.861 183.001,334.861 204.5,338C 213.624,339.864 222.624,342.198 231.5,345C 229.946,354.871 228.113,364.704 226,374.5C 224.681,376.487 222.848,377.654 220.5,378C 181.598,380.1 143.264,376.433 105.5,367C 101.984,365.932 99.3175,363.932 97.5,361C 100.449,344.137 103.449,327.304 106.5,310.5 Z M 677.5,332.5 C 668.846,340.636 659.179,347.469 648.5,353C 612.684,370.039 575.018,380.705 535.5,385C 466.733,393.524 398.4,390.857 330.5,377C 309.931,372.812 290.598,365.479 272.5,355C 267.919,352.252 264.585,348.419 262.5,343.5C 259.572,342.516 256.572,342.183 253.5,342.5C 252.978,334.909 253.978,327.576 256.5,320.5C 328.46,351.592 403.627,367.925 482,369.5C 529.348,369.069 575.848,362.569 621.5,350C 640.348,344.661 659.015,338.828 677.5,332.5 Z M 863.5,366.5 C 864.833,366.5 866.167,366.5 867.5,366.5C 868.368,378.511 869.368,390.511 870.5,402.5C 829.819,415.293 788.152,420.46 745.5,418C 742.91,405.962 740.91,393.795 739.5,381.5C 766.542,379.902 793.542,377.735 820.5,375C 835.202,373.359 849.535,370.526 863.5,366.5 Z M 95.5,377.5 C 111.219,381.877 127.219,385.044 143.5,387C 169.796,389.621 196.13,391.454 222.5,392.5C 221.896,401.516 221.063,410.516 220,419.5C 218.341,427.981 213.174,431.647 204.5,430.5C 173.661,428.981 142.994,425.814 112.5,421C 106.241,419.249 100.241,416.915 94.5,414C 91.3843,411.6 90.0509,408.433 90.5,404.5C 92.0112,395.458 93.6779,386.458 95.5,377.5 Z M 259.5,388.5 C 263.09,392.576 267.423,395.743 272.5,398C 272.043,398.414 271.709,398.914 271.5,399.5C 274.42,408.935 279.92,416.602 288,422.5C 293.12,431.287 299.953,438.453 308.5,444C 335.374,457.179 363.707,465.512 393.5,469C 465.889,478.24 537.889,475.907 609.5,462C 643.298,455.571 674.965,443.738 704.5,426.5C 699.181,439.318 690.515,449.151 678.5,456C 638.422,468.853 597.755,479.52 556.5,488C 461.806,500.872 370.139,489.538 281.5,454C 261.172,439.842 251.672,420.342 253,395.5C 253.897,392.708 255.063,390.041 256.5,387.5C 257.417,388.127 258.417,388.461 259.5,388.5 Z M 681.5,397.5 C 664.418,409.153 645.751,417.653 625.5,423C 575.758,435.719 525.424,440.219 474.5,436.5C 524.413,436.803 573.413,430.303 621.5,417C 641.696,410.99 661.696,404.49 681.5,397.5 Z M 872.5,416.5 C 873.5,416.5 874.5,416.5 875.5,416.5C 877.313,433.153 878.98,449.819 880.5,466.5C 837.934,475.075 794.934,478.742 751.5,477.5C 750.417,462.753 748.75,448.086 746.5,433.5C 789.182,431.903 831.182,426.236 872.5,416.5 Z M 87.5,428.5 C 130.129,435.772 172.796,442.938 215.5,450C 214.481,461.197 212.981,472.364 211,483.5C 209.457,485.378 207.624,486.878 205.5,488C 165.793,489.632 126.46,486.632 87.5,479C 84.0171,476.394 82.3505,472.894 82.5,468.5C 84.1681,455.152 85.8347,441.819 87.5,428.5 Z M 367.5,494.5 C 345.031,492.84 323.031,488.673 301.5,482C 296.119,479.893 290.952,477.393 286,474.5C 282.083,477.32 278.417,476.986 275,473.5C 273.2,475.317 271.034,476.484 268.5,477C 263.543,478.158 258.543,478.992 253.5,479.5C 253.334,474.489 253.501,469.489 254,464.5C 254.14,461.957 254.806,459.623 256,457.5C 292.283,472.761 329.45,485.095 367.5,494.5 Z M 709.5,477.5 C 708.463,498.72 698.13,513.553 678.5,522C 562.896,566.494 445.563,571.494 326.5,537C 309.288,532.041 292.621,525.708 276.5,518C 269.207,513.877 263.873,508.044 260.5,500.5C 272.557,508.025 285.557,513.525 299.5,517C 349.418,529.24 400.085,535.907 451.5,537C 502.262,539.065 552.595,535.398 602.5,526C 627.694,521.047 651.694,512.713 674.5,501C 683.876,495.644 692.543,489.311 700.5,482C 703.553,480.473 706.553,478.973 709.5,477.5 Z M 873.5,481.5 C 876.448,481.223 879.281,481.556 882,482.5C 885.205,491.368 885.872,500.368 884,509.5C 882.895,512.937 880.728,515.437 877.5,517C 869.409,519.849 861.076,521.515 852.5,522C 821.154,524.069 789.821,526.236 758.5,528.5C 757.086,516.265 755.419,504.098 753.5,492C 793.671,488.709 833.671,485.209 873.5,481.5 Z M 79.5,492.5 C 122.471,496.442 165.471,500.109 208.5,503.5C 207.313,515.852 205.979,528.185 204.5,540.5C 171.05,539.503 137.716,537.003 104.5,533C 95.0757,531.144 85.7423,528.977 76.5,526.5C 78.0276,515.223 79.0276,503.889 79.5,492.5 Z M 449.5,572.5 C 403.744,571.156 358.744,564.656 314.5,553C 304.412,550.036 294.912,545.869 286,540.5C 277.175,543.902 268.008,546.235 258.5,547.5C 260.285,557.21 265.619,564.377 274.5,569C 290.296,577.377 306.963,583.377 324.5,587C 413.98,605.472 503.98,608.472 594.5,596C 630.085,591.028 663.418,579.694 694.5,562C 699.661,558.334 704.661,554.501 709.5,550.5C 707.776,561.448 702.776,570.615 694.5,578C 675.241,594.793 652.908,605.46 627.5,610C 584.39,622.389 540.39,628.389 495.5,628C 425.581,632.536 358.248,621.536 293.5,595C 280.202,587.705 268.702,578.205 259,566.5C 252.017,552.732 250.684,538.398 255,523.5C 317.269,550.431 382.102,566.764 449.5,572.5 Z M 882.5,529.5 C 887.353,534.223 889.353,540.057 888.5,547C 889.66,554.203 887.327,559.87 881.5,564C 869.472,568.072 857.139,570.739 844.5,572C 817.507,574.357 790.507,576.523 763.5,578.5C 761.729,565.599 759.729,552.765 757.5,540C 799.694,541.012 841.361,537.512 882.5,529.5 Z M 676.5,536.5 C 664.573,544.657 651.573,550.824 637.5,555C 599.927,565.749 561.593,571.749 522.5,573C 499.33,573.83 476.33,573.663 453.5,572.5C 530.253,575.319 604.586,563.319 676.5,536.5 Z M 76.5,539.5 C 102.379,546.025 128.713,549.525 155.5,550C 171.497,550.5 187.497,550.667 203.5,550.5C 202.562,562.803 201.895,575.136 201.5,587.5C 158.436,589.993 116.103,585.493 74.5,574C 73.9032,572.938 73.5698,571.772 73.5,570.5C 74.3605,560.101 75.3605,549.768 76.5,539.5 Z M 890.5,577.5 C 891.659,587.992 891.825,598.659 891,609.5C 887.48,614.362 882.647,617.195 876.5,618C 840.655,626.925 804.321,630.259 767.5,628C 764.209,623.009 762.376,617.509 762,611.5C 761.611,604.825 761.778,598.159 762.5,591.5C 805.378,587.476 848.045,582.81 890.5,577.5 Z M 71.5,586.5 C 112.975,598.52 155.308,604.854 198.5,605.5C 198.5,616.5 198.5,627.5 198.5,638.5C 181.583,641.756 164.583,641.923 147.5,639C 123.484,636.951 99.8177,632.951 76.5,627C 74.1898,625.363 72.6898,623.196 72,620.5C 71.5001,609.172 71.3335,597.838 71.5,586.5 Z M 276.5,601.5 C 270.7,603.196 264.7,604.529 258.5,605.5C 260.285,615.21 265.619,622.377 274.5,627C 291.99,635.719 310.323,642.052 329.5,646C 403.543,660.792 478.21,665.125 553.5,659C 595.438,656.414 635.772,647.08 674.5,631C 687.214,624.985 698.881,617.485 709.5,608.5C 711.386,628.225 704.053,643.392 687.5,654C 618.305,683.872 545.971,698.039 470.5,696.5C 431.745,692.852 393.411,686.019 355.5,676C 336.514,671.007 318.514,663.673 301.5,654C 299.125,651.824 296.792,649.657 294.5,647.5C 287.586,649.549 280.586,651.216 273.5,652.5C 253.969,636.75 248.636,616.917 257.5,593C 264.048,595.272 270.381,598.106 276.5,601.5 Z M 271.5,666.5 C 274.081,670.643 277.414,674.143 281.5,677C 300.673,689.249 321.34,698.249 343.5,704C 426.603,727.055 510.936,733.388 596.5,723C 624.788,719.403 651.455,710.903 676.5,697.5C 672.821,690.806 669.154,684.14 665.5,677.5C 678.703,672.1 692.036,667.1 705.5,662.5C 714.868,690.907 706.201,711.74 679.5,725C 664.458,731.356 649.125,736.856 633.5,741.5C 632.149,738.803 630.315,736.469 628,734.5C 609.925,744.857 590.425,751.023 569.5,753C 479.018,758.789 390.685,747.456 304.5,719C 295.524,715.762 287.024,711.595 279,706.5C 275.624,710.271 271.458,712.604 266.5,713.5C 253.628,701.33 249.795,686.664 255,669.5C 255.806,666.554 257.139,663.888 259,661.5C 263.015,663.592 267.181,665.259 271.5,666.5 Z M 261.5,730.5 C 267.104,735.312 273.437,739.146 280.5,742C 294.746,748.138 309.413,752.971 324.5,756.5C 351.302,764.396 378.636,770.396 406.5,774.5C 410.591,775.895 414.924,776.562 419.5,776.5C 474.816,786.471 530.483,787.971 586.5,781C 605.196,777.99 622.862,771.99 639.5,763C 642.043,761.618 644.043,759.785 645.5,757.5C 652.573,755.643 659.573,753.476 666.5,751C 682.021,743.384 697.855,736.551 714,730.5C 708.837,746.179 702.504,761.513 695,776.5C 689.731,785.103 682.564,791.603 673.5,796C 652.514,807.161 630.514,815.661 607.5,821.5C 604.908,815.976 601.575,810.976 597.5,806.5C 584.084,813.606 569.75,817.773 554.5,819C 515.983,821.844 477.65,820.178 439.5,814C 398.989,808.098 358.989,799.764 319.5,789C 306.895,785.6 294.562,781.433 282.5,776.5C 280.289,779.756 277.955,782.922 275.5,786C 272.406,786.251 269.406,785.751 266.5,784.5C 251.976,767.875 248.642,749.208 256.5,728.5C 258.075,729.456 259.742,730.123 261.5,730.5 Z M 252.5,810.5 C 263.706,816.071 275.373,820.571 287.5,824C 359.99,845.359 433.99,857.526 509.5,860.5C 535.055,860.812 560.055,857.312 584.5,850C 589.954,847.773 595.287,845.273 600.5,842.5C 601.731,841.349 601.731,840.183 600.5,839C 604.5,837 608.5,835 612.5,833C 613.252,832.329 613.586,831.496 613.5,830.5C 644.859,822.234 675.359,811.568 705,798.5C 713.44,817.241 709.94,833.407 694.5,847C 675.103,859.36 654.103,868.027 631.5,873C 517.047,905.409 404.047,901.075 292.5,860C 280.315,855.168 269.815,848.002 261,838.5C 255.384,830.044 252.551,820.71 252.5,810.5 Z"/></g>
<g><path style="opacity:0.947" fill="#fe0a09" d="M 85.5,137.5 C 101.134,136.034 108.634,143.034 108,158.5C 103.077,171.209 94.2438,175.043 81.5,170C 71.6159,160.946 70.9492,151.279 79.5,141C 81.4319,139.541 83.4319,138.375 85.5,137.5 Z"/></g>
<g><path style="opacity:0.947" fill="#fe0a09" d="M 889.5,137.5 C 902.802,135.972 910.468,141.805 912.5,155C 910.688,167.812 903.354,173.479 890.5,172C 879.197,168.153 875.03,160.32 878,148.5C 880.437,143.226 884.271,139.56 889.5,137.5 Z"/></g>
<g><path style="opacity:0.948" fill="#fe0a09" d="M 957.5,204.5 C 973.351,204.182 980.184,211.849 978,227.5C 972,238.879 963.167,241.712 951.5,236C 944.557,229.818 942.724,222.318 946,213.5C 948.683,208.922 952.517,205.922 957.5,204.5 Z"/></g>
<g><path style="opacity:0.961" fill="#fd0909" d="M 97.5,267.5 C 97.3856,281.997 96.0523,296.331 93.5,310.5C 75.7383,309.568 67.905,300.234 70,282.5C 74.925,270.115 84.0917,265.115 97.5,267.5 Z"/></g>
<g><path style="opacity:0.959" fill="#fe0a09" d="M 888.5,267.5 C 909.11,266.604 917.943,276.271 915,296.5C 907.535,310.08 896.701,313.58 882.5,307C 874.094,300.45 871.261,291.95 874,281.5C 876.774,274.557 881.607,269.89 888.5,267.5 Z"/></g>
<g><path style="opacity:0.987" fill="#00a1fd" d="M 253.5,342.5 C 256.572,342.183 259.572,342.516 262.5,343.5C 264.585,348.419 267.919,352.252 272.5,355C 290.598,365.479 309.931,372.812 330.5,377C 398.4,390.857 466.733,393.524 535.5,385C 575.018,380.705 612.684,370.039 648.5,353C 659.179,347.469 668.846,340.636 677.5,332.5C 678.167,332.5 678.5,332.167 678.5,331.5C 687.518,327.547 696.685,323.881 706,320.5C 708.283,322.994 709.617,325.994 710,329.5C 711.964,351.323 704.131,368.49 686.5,381C 662.431,392.246 637.431,400.912 611.5,407C 501.144,433.563 392.811,426.896 286.5,387C 266.419,378.771 255.419,363.937 253.5,342.5 Z"/></g>
<g><path style="opacity:0.956" fill="#fe0a09" d="M 34.5,334.5 C 45.6786,334.206 53.1786,339.206 57,349.5C 59.0135,368.486 50.5135,377.319 31.5,376C 19.2617,371.365 14.4283,362.532 17,349.5C 20.2665,341.393 26.0999,336.393 34.5,334.5 Z"/></g>
<g><path style="opacity:0.953" fill="#fe0a09" d="M 958.5,334.5 C 979.584,336.67 986.417,347.67 979,367.5C 970.814,377.256 960.98,379.09 949.5,373C 937.954,361.974 937.62,350.64 948.5,339C 951.815,337.17 955.149,335.67 958.5,334.5 Z"/></g>
<g><path style="opacity:0.98" fill="#00a1fe" d="M 704.5,426.5 C 674.965,443.738 643.298,455.571 609.5,462C 537.889,475.907 465.889,478.24 393.5,469C 363.707,465.512 335.374,457.179 308.5,444C 299.953,438.453 293.12,431.287 288,422.5C 279.92,416.602 274.42,408.935 271.5,399.5C 271.709,398.914 272.043,398.414 272.5,398C 267.423,395.743 263.09,392.576 259.5,388.5C 295.578,403.025 332.578,414.859 370.5,424C 395.575,429.416 420.908,432.916 446.5,434.5C 450.298,435.483 454.298,435.817 458.5,435.5C 463.64,436.488 468.974,436.821 474.5,436.5C 525.424,440.219 575.758,435.719 625.5,423C 645.751,417.653 664.418,409.153 681.5,397.5C 682.492,397.672 683.158,397.338 683.5,396.5C 690.097,393.021 696.93,390.021 704,387.5C 710.802,392.467 713.136,399.133 711,407.5C 709.936,414.277 707.769,420.61 704.5,426.5 Z M 681.5,397.5 C 664.418,409.153 645.751,417.653 625.5,423C 575.758,435.719 525.424,440.219 474.5,436.5C 524.413,436.803 573.413,430.303 621.5,417C 641.696,410.99 661.696,404.49 681.5,397.5 Z"/></g>
<g><path style="opacity:0.875" fill="#0090e4" d="M 726.5,399.5 C 725.833,399.833 725.167,400.167 724.5,400.5C 724.334,396.486 724.501,392.486 725,388.5C 726.108,392.086 726.608,395.753 726.5,399.5 Z"/></g>
<g><path style="opacity:0.981" fill="#00a1fd" d="M 709.5,477.5 C 706.553,478.973 703.553,480.473 700.5,482C 692.543,489.311 683.876,495.644 674.5,501C 651.694,512.713 627.694,521.047 602.5,526C 552.595,535.398 502.262,539.065 451.5,537C 400.085,535.907 349.418,529.24 299.5,517C 285.557,513.525 272.557,508.025 260.5,500.5C 259.115,499.426 257.949,498.093 257,496.5C 255.037,490.984 253.87,485.317 253.5,479.5C 258.543,478.992 263.543,478.158 268.5,477C 271.034,476.484 273.2,475.317 275,473.5C 278.417,476.986 282.083,477.32 286,474.5C 290.952,477.393 296.119,479.893 301.5,482C 323.031,488.673 345.031,492.84 367.5,494.5C 453.752,512.839 539.419,510.006 624.5,486C 651.121,478.016 677.288,468.849 703,458.5C 705.751,458.946 707.418,460.613 708,463.5C 709.842,468.137 710.342,472.804 709.5,477.5 Z"/></g>
<g><path style="opacity:0.96" fill="#fe0a09" d="M -0.5,495.5 C -0.5,491.5 -0.5,487.5 -0.5,483.5C 7.20325,466.204 19.8699,461.37 37.5,469C 49.7485,479.561 51.5819,491.727 43,505.5C 29.7112,517.699 16.7112,517.366 4,504.5C 2.19914,501.563 0.699136,498.563 -0.5,495.5 Z"/></g>
<g><path style="opacity:0.963" fill="#fe0a09" d="M 986.5,487.5 C 986.5,488.833 986.5,490.167 986.5,491.5C 982.521,509.169 971.521,516.336 953.5,513C 938.979,506.118 934.146,494.951 939,479.5C 945.446,467.896 955.279,463.396 968.5,466C 978.751,469.74 984.751,476.906 986.5,487.5 Z"/></g>
<g><path style="opacity:0.971" fill="#00a1fe" d="M 709.5,550.5 C 704.661,554.501 699.661,558.334 694.5,562C 663.418,579.694 630.085,591.028 594.5,596C 503.98,608.472 413.98,605.472 324.5,587C 306.963,583.377 290.296,577.377 274.5,569C 265.619,564.377 260.285,557.21 258.5,547.5C 268.008,546.235 277.175,543.902 286,540.5C 294.912,545.869 304.412,550.036 314.5,553C 358.744,564.656 403.744,571.156 449.5,572.5C 450.833,572.5 452.167,572.5 453.5,572.5C 476.33,573.663 499.33,573.83 522.5,573C 561.593,571.749 599.927,565.749 637.5,555C 651.573,550.824 664.573,544.657 676.5,536.5C 677.492,536.672 678.158,536.338 678.5,535.5C 687.138,531.841 695.804,528.174 704.5,524.5C 710.211,532.327 711.878,540.994 709.5,550.5 Z"/></g>
<g><path style="opacity:0.927" fill="#fe0909" d="M 904.5,565.5 C 904.752,560.012 904.085,554.678 902.5,549.5C 902.5,543.167 902.5,536.833 902.5,530.5C 914.9,534.586 921.567,543.253 922.5,556.5C 922.016,567.975 916.683,576.309 906.5,581.5C 905.833,576.015 905.167,570.681 904.5,565.5 Z"/></g>
<g><path style="opacity:0.978" fill="#00a0fd" d="M 709.5,608.5 C 698.881,617.485 687.214,624.985 674.5,631C 635.772,647.08 595.438,656.414 553.5,659C 478.21,665.125 403.543,660.792 329.5,646C 310.323,642.052 291.99,635.719 274.5,627C 265.619,622.377 260.285,615.21 258.5,605.5C 264.7,604.529 270.7,603.196 276.5,601.5C 360.101,636.64 447.101,649.473 537.5,640C 595.768,634.103 651.101,618.269 703.5,592.5C 705.353,593.189 706.519,594.522 707,596.5C 708.359,600.405 709.192,604.405 709.5,608.5 Z"/></g>
<g><path style="opacity:0.964" fill="#fe0a09" d="M 986.5,621.5 C 986.5,622.833 986.5,624.167 986.5,625.5C 982.56,643.154 971.56,650.32 953.5,647C 938.979,640.118 934.146,628.951 939,613.5C 947.946,599.3 960.113,595.8 975.5,603C 981.652,607.82 985.318,613.987 986.5,621.5 Z"/></g>
<g><path style="opacity:0.91" fill="#009cf6" d="M 470.5,696.5 C 407,696.7 346,684.533 287.5,660C 282.466,657.953 277.8,655.453 273.5,652.5C 280.586,651.216 287.586,649.549 294.5,647.5C 296.792,649.657 299.125,651.824 301.5,654C 318.514,663.673 336.514,671.007 355.5,676C 393.411,686.019 431.745,692.852 470.5,696.5 Z"/></g>
<g><path style="opacity:0.977" fill="#fe0a09" d="M 239.5,662.5 C 239.5,681.5 239.5,700.5 239.5,719.5C 220.915,726.139 206.415,721.139 196,704.5C 189.707,687.386 193.874,673.553 208.5,663C 218.822,657.423 229.155,657.257 239.5,662.5 Z"/></g>
<g><path style="opacity:0.969" fill="#fe0a09" d="M 758.5,658.5 C 779.234,659.235 790.568,669.902 792.5,690.5C 789.338,714.75 775.671,724.917 751.5,721C 744.592,719.078 739.092,715.245 735,709.5C 734.333,696.833 734.333,684.167 735,671.5C 741.133,663.855 748.966,659.522 758.5,658.5 Z"/></g>
<g><path style="opacity:0.965" fill="#fe0a09" d="M 89.5,664.5 C 112.012,667.848 120.178,680.515 114,702.5C 105.652,715.468 94.1517,719.302 79.5,714C 66.6721,706.194 62.5054,695.027 67,680.5C 71.6198,671.037 79.1198,665.704 89.5,664.5 Z"/></g>
<g><path style="opacity:0.964" fill="#fe0a09" d="M 893.5,664.5 C 914.204,667.232 922.704,678.899 919,699.5C 909.395,716.944 895.895,720.777 878.5,711C 867.102,699.45 865.936,686.95 875,673.5C 880.276,668.444 886.442,665.444 893.5,664.5 Z"/></g>
<g><path style="opacity:0.97" fill="#00a0fd" d="M 271.5,666.5 C 384.963,714.927 501.296,723.094 620.5,691C 635.495,686.39 650.495,681.89 665.5,677.5C 669.154,684.14 672.821,690.806 676.5,697.5C 651.455,710.903 624.788,719.403 596.5,723C 510.936,733.388 426.603,727.055 343.5,704C 321.34,698.249 300.673,689.249 281.5,677C 277.414,674.143 274.081,670.643 271.5,666.5 Z"/></g>
<g><path style="opacity:0.962" fill="#00a0fc" d="M 633.5,741.5 C 599.457,754.675 564.123,762.842 527.5,766C 494.824,766.677 462.158,766.343 429.5,765C 402.832,763.429 376.832,758.429 351.5,750C 323.016,740.952 295.349,729.952 268.5,717C 267.177,716.184 266.511,715.017 266.5,713.5C 271.458,712.604 275.624,710.271 279,706.5C 287.024,711.595 295.524,715.762 304.5,719C 390.685,747.456 479.018,758.789 569.5,753C 590.425,751.023 609.925,744.857 628,734.5C 630.315,736.469 632.149,738.803 633.5,741.5 Z"/></g>
<g><path style="opacity:0.964" fill="#fe0a09" d="M 151.5,731.5 C 166.796,729.326 177.296,735.326 183,749.5C 186.264,769.736 177.764,781.403 157.5,784.5C 141.297,782.632 132.631,773.632 131.5,757.5C 132.432,744.257 139.098,735.591 151.5,731.5 Z"/></g>
<g><path style="opacity:0.844" fill="#009cf6" d="M 261.5,730.5 C 283.21,737.621 304.21,746.287 324.5,756.5C 309.413,752.971 294.746,748.138 280.5,742C 273.437,739.146 267.104,735.312 261.5,730.5 Z"/></g>
<g><path style="opacity:0.965" fill="#fe0a09" d="M 820.5,731.5 C 840.284,729.298 851.617,737.965 854.5,757.5C 850.088,780.539 836.755,788.372 814.5,781C 800.969,771.201 797.802,758.701 805,743.5C 809.02,737.919 814.186,733.919 820.5,731.5 Z"/></g>
<g><path style="opacity:0.953" fill="#fe0a09" d="M 958.5,736.5 C 975.287,737.119 983.12,745.785 982,762.5C 975.574,777.867 964.741,782.034 949.5,775C 939.53,766.073 938.03,755.907 945,744.5C 948.696,740.268 953.196,737.602 958.5,736.5 Z"/></g>
<g><path style="opacity:0.927" fill="#009ef8" d="M 645.5,757.5 C 644.043,759.785 642.043,761.618 639.5,763C 622.862,771.99 605.196,777.99 586.5,781C 530.483,787.971 474.816,786.471 419.5,776.5C 475.458,783.279 531.125,781.445 586.5,771C 606.245,766.807 625.911,762.307 645.5,757.5 Z"/></g>
<g><path style="opacity:1" fill="#006cab" d="M 406.5,774.5 C 411.122,774.156 415.455,774.823 419.5,776.5C 414.924,776.562 410.591,775.895 406.5,774.5 Z"/></g>
<g><path style="opacity:0.97" fill="#009ffb" d="M 607.5,821.5 C 594.801,824.842 581.801,827.342 568.5,829C 470.155,840.6 374.488,829.6 281.5,796C 275.745,793.069 270.745,789.236 266.5,784.5C 269.406,785.751 272.406,786.251 275.5,786C 277.955,782.922 280.289,779.756 282.5,776.5C 294.562,781.433 306.895,785.6 319.5,789C 358.989,799.764 398.989,808.098 439.5,814C 477.65,820.178 515.983,821.844 554.5,819C 569.75,817.773 584.084,813.606 597.5,806.5C 601.575,810.976 604.908,815.976 607.5,821.5 Z"/></g>
<g><path style="opacity:0.97" fill="#fe0909" d="M 238.5,801.5 C 240.427,814.208 243.76,826.541 248.5,838.5C 237.893,851.9 224.893,854.733 209.5,847C 197.429,835.9 195.262,823.067 203,808.5C 213.182,797.499 225.015,795.165 238.5,801.5 Z"/></g>
<g><path style="opacity:0.961" fill="#009ffb" d="M 613.5,830.5 C 613.586,831.496 613.252,832.329 612.5,833C 608.5,835 604.5,837 600.5,839C 601.731,840.183 601.731,841.349 600.5,842.5C 595.287,845.273 589.954,847.773 584.5,850C 560.055,857.312 535.055,860.812 509.5,860.5C 433.99,857.526 359.99,845.359 287.5,824C 275.373,820.571 263.706,816.071 252.5,810.5C 252.802,805.786 253.468,801.12 254.5,796.5C 370.215,849.171 489.882,860.504 613.5,830.5 Z"/></g>
<g><path style="opacity:0.965" fill="#fe0a09" d="M 758.5,797.5 C 776.368,798.089 786.035,807.256 787.5,825C 785.936,841.397 776.936,850.231 760.5,851.5C 740.27,848.431 731.77,836.764 735,816.5C 739.188,805.463 747.022,799.129 758.5,797.5 Z"/></g>
<g><path style="opacity:0.956" fill="#fe0a09" d="M 83.5,803.5 C 105.278,801.441 114.444,811.107 111,832.5C 104.356,845.378 94.1896,849.212 80.5,844C 70.1607,836.982 66.994,827.482 71,815.5C 73.7441,809.921 77.9108,805.921 83.5,803.5 Z"/></g>
<g><path style="opacity:0.959" fill="#fe0a09" d="M 887.5,803.5 C 904.458,800.97 914.125,808.136 916.5,825C 912.902,843.135 902.236,849.468 884.5,844C 874.554,837.846 871.054,829.013 874,817.5C 876.687,810.981 881.187,806.314 887.5,803.5 Z"/></g>
<g><path style="opacity:0.966" fill="#fe0909" d="M 695.5,865.5 C 710.828,867.663 719.162,876.497 720.5,892C 717.355,911.479 706.022,919.812 686.5,917C 671.102,911.208 665.102,900.208 668.5,884C 674.569,879.971 680.236,875.471 685.5,870.5C 686.492,870.672 687.158,870.338 687.5,869.5C 689.926,867.62 692.592,866.287 695.5,865.5 Z"/></g>
<g><path style="opacity:0.957" fill="#fe0a09" d="M 154.5,869.5 C 172.834,869.998 181.001,879.331 179,897.5C 172.199,913.002 161.033,917.168 145.5,910C 135.292,900.915 133.458,890.415 140,878.5C 144.015,873.946 148.848,870.946 154.5,869.5 Z"/></g>
<g><path style="opacity:0.97" fill="#fe0909" d="M 277.5,869.5 C 290.818,875.046 304.151,880.38 317.5,885.5C 319.913,900.844 313.913,911.344 299.5,917C 275.995,919.493 264.829,908.993 266,885.5C 267.653,878.502 271.486,873.169 277.5,869.5 Z"/></g>
<g><path style="opacity:0.953" fill="#fe0a09" d="M 823.5,869.5 C 841.809,869.308 850.309,878.308 849,896.5C 844.821,909.327 835.988,914.827 822.5,913C 806.549,906.583 802.049,895.416 809,879.5C 812.689,874.28 817.522,870.947 823.5,869.5 Z"/></g>
<g><path style="opacity:0.951" fill="#fe0a09" d="M 956.5,874.5 C 975.611,874.44 982.111,883.44 976,901.5C 969.006,908.991 960.84,910.491 951.5,906C 944.557,899.818 942.724,892.318 946,883.5C 948.505,879.189 952.005,876.189 956.5,874.5 Z"/></g>
<g><path style="opacity:0.959" fill="#fe0a09" d="M 358.5,929.5 C 382.059,929.976 391.226,941.642 386,964.5C 377.307,978.301 365.474,981.801 350.5,975C 338.867,965.611 336.367,954.111 343,940.5C 346.955,935.033 352.122,931.366 358.5,929.5 Z"/></g>
<g><path style="opacity:0.954" fill="#fe0a09" d="M 756.5,937.5 C 773.806,937.637 781.972,946.304 781,963.5C 774.574,978.867 763.741,983.034 748.5,976C 738.715,967.032 737.215,956.866 744,945.5C 747.579,941.724 751.746,939.057 756.5,937.5 Z"/></g>
<g><path style="opacity:0.95" fill="#fe0a09" d="M 888.5,941.5 C 906.631,939.793 914.131,947.793 911,965.5C 905.058,975.698 896.558,978.531 885.5,974C 877.089,967.01 875.256,958.51 880,948.5C 882.441,945.546 885.275,943.213 888.5,941.5 Z"/></g>
<g><path style="opacity:0.95" fill="#fe0a09" d="M 822.5,1008.5 C 841.611,1008.44 848.111,1017.44 842,1035.5C 835.006,1042.99 826.84,1044.49 817.5,1040C 808.167,1030.33 808.167,1020.67 817.5,1011C 819.315,1010.24 820.981,1009.41 822.5,1008.5 Z"/></g>
<g><path style="opacity:0.842" fill="#fe0a09" d="M 930.5,1020.5 C 939.523,1020.06 942.189,1023.89 938.5,1032C 930.243,1034.96 926.743,1032.13 928,1023.5C 929.045,1022.63 929.878,1021.63 930.5,1020.5 Z"/></g>
<g><path style="opacity:0.935" fill="#fe0a09" d="M 900.5,1105.5 C 896.833,1105.5 893.167,1105.5 889.5,1105.5C 882.399,1101.61 879.899,1095.61 882,1087.5C 884.263,1081.95 888.43,1079.28 894.5,1079.5C 903.004,1079.67 907.67,1084 908.5,1092.5C 908.093,1098.33 905.427,1102.66 900.5,1105.5 Z"/></g>
</svg>
